<svg xmlns="http://www.w3.org/2000/svg" xmlns:xlink="http://www.w3.org/1999/xlink" width="500" zoomAndPan="magnify" viewBox="0 0 375 374.999991" height="500" preserveAspectRatio="xMidYMid meet" version="1.0"><defs><g/></defs><g fill="#cf786f" fill-opacity="1"><g transform="translate(161.273483, 369.768872)"><g><path d="M 15.042969 -229.71875 L 15.042969 -34.183594 C 15.042969 -20.511719 11.757812 -5.46875 5.46875 0 L 86.144531 0 C 79.855469 -5.46875 76.574219 -20.238281 76.574219 -33.910156 L 76.574219 -147.402344 L 120.328125 -25.980469 C 125.523438 -13.398438 124.429688 -4.648438 120.328125 0 L 210.574219 0 C 200.457031 -5.195312 187.054688 -24.339844 171.742188 -64.8125 L 156.152344 -106.109375 C 188.421875 -115.953125 211.394531 -141.660156 211.394531 -179.671875 C 211.394531 -234.914062 162.988281 -263.902344 119.78125 -263.902344 L 5.46875 -263.902344 C 11.757812 -258.433594 15.042969 -243.390625 15.042969 -229.71875 Z M 76.574219 -147.402344 L 76.574219 -211.941406 L 116.226562 -211.941406 C 138.652344 -211.941406 150.410156 -196.628906 150.410156 -179.671875 C 150.410156 -164.632812 139.199219 -147.402344 115.679688 -147.402344 Z M 76.574219 -147.402344 "/></g></g></g><g fill="#cf786f" fill-opacity="1"><g transform="translate(-6.019784, 280.192175)"><g><path d="M 140.292969 4.101562 C 179.125 4.101562 213.582031 -6.835938 234.640625 -30.082031 C 225.34375 -52.507812 216.863281 -81.496094 216.863281 -81.496094 C 216.863281 -81.496094 197.722656 -48.40625 150.410156 -48.40625 C 108.296875 -48.40625 71.101562 -76.027344 71.101562 -131.8125 C 71.101562 -188.148438 108.296875 -215.769531 150.410156 -215.769531 C 197.722656 -215.769531 216.863281 -182.679688 216.863281 -182.679688 C 216.863281 -182.679688 225.34375 -211.667969 234.640625 -234.09375 C 213.582031 -257.339844 179.125 -268.003906 140.292969 -268.003906 C 60.710938 -268.003906 9.570312 -207.019531 9.570312 -132.085938 C 9.570312 -57.15625 60.710938 4.101562 140.292969 4.101562 Z M 140.292969 4.101562 "/></g></g></g></svg>