<svg xmlns="http://www.w3.org/2000/svg" xmlns:xlink="http://www.w3.org/1999/xlink" width="1920" zoomAndPan="magnify" viewBox="0 0 1440 809.999993" height="1080" preserveAspectRatio="xMidYMid meet" version="1.0"><defs><g/><clipPath id="bc92ef681d"><path d="M 1125.511719 614 L 1243 614 L 1243 628 L 1125.511719 628 Z M 666 614 L 1004.097656 614 L 1004.097656 628 L 666 628 Z M 666 614 " clip-rule="nonzero"/></clipPath><clipPath id="626b280a54"><path d="M 1264 337 L 1320 337 L 1320 560 L 1264 560 Z M 1264 337 " clip-rule="nonzero"/></clipPath><clipPath id="5a49354a56"><path d="M 1159.464844 457.054688 L 1268.085938 337.882812 L 1408.324219 465.703125 L 1299.703125 584.878906 Z M 1159.464844 457.054688 " clip-rule="nonzero"/></clipPath><clipPath id="bd6321ca1d"><path d="M 1159.464844 457.054688 L 1268.085938 337.882812 L 1408.324219 465.703125 L 1299.703125 584.878906 Z M 1159.464844 457.054688 " clip-rule="nonzero"/></clipPath><clipPath id="102d6d5e6a"><path d="M 1270 509 L 1324 509 L 1324 561 L 1270 561 Z M 1270 509 " clip-rule="nonzero"/></clipPath><clipPath id="9ec55406d9"><path d="M 1159.464844 457.054688 L 1268.085938 337.882812 L 1408.324219 465.703125 L 1299.703125 584.878906 Z M 1159.464844 457.054688 " clip-rule="nonzero"/></clipPath><clipPath id="812c2720d1"><path d="M 1159.464844 457.054688 L 1268.085938 337.882812 L 1408.324219 465.703125 L 1299.703125 584.878906 Z M 1159.464844 457.054688 " clip-rule="nonzero"/></clipPath></defs><rect x="-144" width="1728" fill="#ffffff" y="-80.999999" height="971.999992" fill-opacity="1"/><rect x="-144" width="1728" fill="#ffffff" y="-80.999999" height="971.999992" fill-opacity="1"/><rect x="-144" width="1728" fill="#ffffff" y="-80.999999" height="971.999992" fill-opacity="1"/><g fill="#becccf" fill-opacity="1"><g transform="translate(519.074238, 282.750006)"><g><path d="M 87.980469 -91.363281 L 87.980469 -106.25 L 35.328125 -117.078125 L 35.328125 -102.191406 Z M 42.09375 1.355469 C 61.992188 1.355469 78.097656 -3.65625 92.582031 -9.878906 L 92.582031 0 L 113.289062 0 L 113.289062 -40.199219 C 113.019531 -70.246094 94.070312 -80.535156 60.773438 -80.535156 C 43.855469 -80.535156 28.152344 -77.558594 11.910156 -72.277344 L 19.492188 -57.253906 C 36.410156 -62.398438 49.269531 -63.34375 59.691406 -63.34375 C 70.519531 -63.34375 92.582031 -61.992188 92.582031 -45.34375 C 81.210938 -48.996094 67.675781 -51.570312 53.328125 -51.570312 C 27.746094 -51.570312 5.277344 -44.667969 5.277344 -24.09375 C 5.277344 -5.957031 18.542969 1.355469 42.09375 1.355469 Z M 47.914062 -14.347656 C 34.648438 -14.347656 25.988281 -15.023438 25.988281 -24.5 C 25.988281 -33.566406 37.355469 -36.816406 55.359375 -36.816406 C 71.601562 -36.816406 83.511719 -34.246094 92.582031 -31.265625 L 92.582031 -24.226562 C 79.585938 -18.8125 60.773438 -14.347656 47.914062 -14.347656 Z M 47.914062 -14.347656 "/></g></g></g><g fill="#becccf" fill-opacity="1"><g transform="translate(638.995748, 282.750006)"><g/></g></g><g fill="#becccf" fill-opacity="1"><g transform="translate(703.01705, 282.750006)"><g><path d="M 6.632812 0 L 27.339844 0 L 27.339844 -108.28125 L 6.632812 -108.28125 Z M 6.632812 0 "/></g></g></g><g fill="#becccf" fill-opacity="1"><g transform="translate(736.990288, 282.750006)"><g><path d="M 42.09375 1.355469 C 61.992188 1.355469 78.097656 -3.65625 92.582031 -9.878906 L 92.582031 0 L 113.289062 0 L 113.289062 -40.199219 C 113.019531 -70.246094 94.070312 -80.535156 60.773438 -80.535156 C 43.855469 -80.535156 28.152344 -77.558594 11.910156 -72.277344 L 19.492188 -57.253906 C 36.410156 -62.398438 49.269531 -63.34375 59.691406 -63.34375 C 70.519531 -63.34375 92.582031 -61.992188 92.582031 -45.34375 C 81.210938 -48.996094 67.675781 -51.570312 53.328125 -51.570312 C 27.746094 -51.570312 5.277344 -44.667969 5.277344 -24.09375 C 5.277344 -5.957031 18.542969 1.355469 42.09375 1.355469 Z M 47.914062 -14.347656 C 34.648438 -14.347656 25.988281 -15.023438 25.988281 -24.5 C 25.988281 -33.566406 37.355469 -36.816406 55.359375 -36.816406 C 71.601562 -36.816406 83.511719 -34.246094 92.582031 -31.265625 L 92.582031 -24.226562 C 79.585938 -18.8125 60.773438 -14.347656 47.914062 -14.347656 Z M 47.914062 -14.347656 "/></g></g></g><g fill="#becccf" fill-opacity="1"><g transform="translate(856.902346, 282.750006)"><g/></g></g><g fill="#becccf" fill-opacity="1"><g transform="translate(165.46097, 444.749998)"><g><path d="M 6.632812 0 L 27.339844 0 L 27.339844 -48.726562 C 42.5 -60.097656 58.066406 -63.34375 71.601562 -63.34375 C 78.503906 -63.34375 84.59375 -62.53125 92.175781 -60.636719 L 92.175781 -77.828125 C 86.761719 -79.179688 80.128906 -80.535156 70.652344 -80.535156 C 55.496094 -80.535156 40.335938 -76.339844 27.339844 -65.644531 L 27.339844 -79.179688 L 6.632812 -79.179688 Z M 6.632812 0 "/></g></g></g><g fill="#becccf" fill-opacity="1"><g transform="translate(262.914114, 444.749998)"><g><path d="M 59.148438 1.355469 C 87.707031 1.355469 108.148438 -8.121094 113.5625 -28.019531 L 92.988281 -28.019531 C 87.4375 -19.21875 76.339844 -15.566406 59.148438 -15.566406 C 41.824219 -15.566406 29.101562 -20.167969 26.394531 -34.246094 L 114.914062 -34.246094 C 114.914062 -70.652344 90.007812 -80.535156 60.503906 -80.535156 C 28.289062 -80.535156 5.277344 -68.625 5.277344 -39.660156 C 5.277344 -10.558594 29.371094 1.355469 59.148438 1.355469 Z M 27.207031 -48.457031 C 30.726562 -60.503906 42.5 -64.429688 60.503906 -64.429688 C 76.878906 -64.429688 89.0625 -60.503906 92.851562 -48.457031 Z M 27.207031 -48.457031 "/></g></g></g><g fill="#becccf" fill-opacity="1"><g transform="translate(383.241684, 444.749998)"><g><path d="M 60.503906 1.355469 C 89.601562 1.355469 110.855469 -8.121094 114.914062 -31.132812 L 93.933594 -31.132812 C 90.550781 -19.898438 78.640625 -15.835938 60.503906 -15.835938 C 39.117188 -15.835938 25.988281 -21.792969 25.988281 -39.660156 C 25.988281 -57.390625 39.117188 -63.34375 60.503906 -63.34375 C 78.640625 -63.34375 90.550781 -59.417969 93.933594 -48.183594 L 114.914062 -48.183594 C 110.855469 -71.058594 89.601562 -80.535156 60.503906 -80.535156 C 28.019531 -80.535156 5.277344 -68.625 5.277344 -39.660156 C 5.277344 -10.558594 28.019531 1.355469 60.503906 1.355469 Z M 60.503906 1.355469 "/></g></g></g><g fill="#becccf" fill-opacity="1"><g transform="translate(503.569254, 444.749998)"><g><path d="M 6.632812 0 L 27.339844 0 L 27.339844 -44.800781 C 34.648438 -53.871094 53.195312 -62.9375 70.382812 -62.9375 C 90.820312 -62.9375 96.640625 -53.328125 96.640625 -35.597656 L 96.640625 0 L 117.351562 0 L 117.621094 -43.175781 C 117.351562 -72.550781 97.589844 -80.535156 75.660156 -80.535156 C 55.765625 -80.535156 38.980469 -74.039062 27.339844 -64.429688 L 27.339844 -108.28125 L 6.632812 -108.28125 Z M 6.632812 0 "/></g></g></g><g fill="#becccf" fill-opacity="1"><g transform="translate(627.822032, 444.749998)"><g><path d="M 59.148438 1.355469 C 87.707031 1.355469 108.148438 -8.121094 113.5625 -28.019531 L 92.988281 -28.019531 C 87.4375 -19.21875 76.339844 -15.566406 59.148438 -15.566406 C 41.824219 -15.566406 29.101562 -20.167969 26.394531 -34.246094 L 114.914062 -34.246094 C 114.914062 -70.652344 90.007812 -80.535156 60.503906 -80.535156 C 28.289062 -80.535156 5.277344 -68.625 5.277344 -39.660156 C 5.277344 -10.558594 29.371094 1.355469 59.148438 1.355469 Z M 27.207031 -48.457031 C 30.726562 -60.503906 42.5 -64.429688 60.503906 -64.429688 C 76.878906 -64.429688 89.0625 -60.503906 92.851562 -48.457031 Z M 27.207031 -48.457031 "/></g></g></g><g fill="#becccf" fill-opacity="1"><g transform="translate(748.149602, 444.749998)"><g><path d="M 6.632812 0 L 27.339844 0 L 27.339844 -48.726562 C 42.5 -60.097656 58.066406 -63.34375 71.601562 -63.34375 C 78.503906 -63.34375 84.59375 -62.53125 92.175781 -60.636719 L 92.175781 -77.828125 C 86.761719 -79.179688 80.128906 -80.535156 70.652344 -80.535156 C 55.496094 -80.535156 40.335938 -76.339844 27.339844 -65.644531 L 27.339844 -79.179688 L 6.632812 -79.179688 Z M 6.632812 0 "/></g></g></g><g fill="#becccf" fill-opacity="1"><g transform="translate(845.602722, 444.749998)"><g><path d="M 60.503906 1.355469 C 89.601562 1.355469 110.855469 -8.121094 114.914062 -31.132812 L 93.933594 -31.132812 C 90.550781 -19.898438 78.640625 -15.835938 60.503906 -15.835938 C 39.117188 -15.835938 25.988281 -21.792969 25.988281 -39.660156 C 25.988281 -57.390625 39.117188 -63.34375 60.503906 -63.34375 C 78.640625 -63.34375 90.550781 -59.417969 93.933594 -48.183594 L 114.914062 -48.183594 C 110.855469 -71.058594 89.601562 -80.535156 60.503906 -80.535156 C 28.019531 -80.535156 5.277344 -68.625 5.277344 -39.660156 C 5.277344 -10.558594 28.019531 1.355469 60.503906 1.355469 Z M 60.503906 1.355469 "/></g></g></g><g fill="#becccf" fill-opacity="1"><g transform="translate(965.930292, 444.749998)"><g><path d="M 6.632812 0 L 27.339844 0 L 27.339844 -44.800781 C 34.648438 -53.871094 53.195312 -62.9375 70.382812 -62.9375 C 90.820312 -62.9375 96.640625 -53.328125 96.640625 -35.597656 L 96.640625 0 L 117.351562 0 L 117.621094 -43.175781 C 117.351562 -72.550781 97.589844 -80.535156 75.660156 -80.535156 C 55.765625 -80.535156 38.980469 -74.039062 27.339844 -64.429688 L 27.339844 -108.28125 L 6.632812 -108.28125 Z M 6.632812 0 "/></g></g></g><g fill="#becccf" fill-opacity="1"><g transform="translate(1090.183094, 444.749998)"><g><path d="M 59.148438 1.355469 C 87.707031 1.355469 108.148438 -8.121094 113.5625 -28.019531 L 92.988281 -28.019531 C 87.4375 -19.21875 76.339844 -15.566406 59.148438 -15.566406 C 41.824219 -15.566406 29.101562 -20.167969 26.394531 -34.246094 L 114.914062 -34.246094 C 114.914062 -70.652344 90.007812 -80.535156 60.503906 -80.535156 C 28.289062 -80.535156 5.277344 -68.625 5.277344 -39.660156 C 5.277344 -10.558594 29.371094 1.355469 59.148438 1.355469 Z M 27.207031 -48.457031 C 30.726562 -60.503906 42.5 -64.429688 60.503906 -64.429688 C 76.878906 -64.429688 89.0625 -60.503906 92.851562 -48.457031 Z M 27.207031 -48.457031 "/></g></g></g><g fill="#becccf" fill-opacity="1"><g transform="translate(1210.503905, 444.749998)"><g/></g></g><g fill="#becccf" fill-opacity="1"><g transform="translate(197.277379, 606.749989)"><g><path d="M 53.597656 1.355469 C 72.277344 1.355469 86.355469 -3.65625 95.015625 -12.722656 L 95.015625 0 L 115.726562 0 L 115.726562 -108.28125 L 95.015625 -108.28125 L 95.015625 -66.457031 C 86.355469 -75.660156 72.277344 -80.535156 53.597656 -80.535156 C 26.800781 -80.535156 5.277344 -69.4375 5.277344 -39.660156 C 5.277344 -9.878906 26.800781 1.355469 53.597656 1.355469 Z M 60.503906 -15.835938 C 38.167969 -15.835938 25.988281 -22.738281 25.988281 -39.660156 C 25.988281 -56.441406 38.167969 -63.34375 60.503906 -63.34375 C 82.835938 -63.34375 95.015625 -56.441406 95.015625 -39.660156 C 95.015625 -22.738281 82.835938 -15.835938 60.503906 -15.835938 Z M 60.503906 -15.835938 "/></g></g></g><g fill="#becccf" fill-opacity="1"><g transform="translate(319.635222, 606.749989)"><g><path d="M 8.390625 -54.140625 L 26.394531 -54.140625 L 28.019531 -97.453125 L 6.632812 -97.453125 Z M 8.390625 -54.140625 "/></g></g></g><g fill="#becccf" fill-opacity="1"><g transform="translate(354.285229, 606.749989)"><g><path d="M 48.726562 1.355469 C 68.625 1.355469 85.273438 -5.144531 97.046875 -14.753906 L 97.046875 0 L 117.621094 0 L 117.621094 -79.179688 L 97.046875 -79.179688 L 97.046875 -34.378906 C 89.601562 -25.3125 71.058594 -16.242188 53.871094 -16.242188 C 33.566406 -16.242188 27.613281 -25.988281 27.613281 -43.582031 L 27.613281 -79.179688 L 6.902344 -79.179688 L 6.632812 -36.003906 C 6.902344 -6.632812 26.664062 1.355469 48.726562 1.355469 Z M 48.726562 1.355469 "/></g></g></g><g fill="#becccf" fill-opacity="1"><g transform="translate(478.537985, 606.749989)"><g><path d="M 6.632812 0 L 27.339844 0 L 27.339844 -44.800781 C 34.648438 -53.871094 53.195312 -62.9375 70.382812 -62.9375 C 90.820312 -62.9375 96.640625 -53.328125 96.640625 -35.597656 L 96.640625 0 L 117.351562 0 L 117.621094 -43.175781 C 117.351562 -72.550781 97.589844 -80.535156 75.660156 -80.535156 C 55.765625 -80.535156 38.980469 -74.039062 27.339844 -64.429688 L 27.339844 -79.179688 L 6.632812 -79.179688 Z M 6.632812 0 "/></g></g></g><g fill="#7c99fc" fill-opacity="1"><g transform="translate(602.781261, 606.749989)"><g/></g></g><g clip-path="url(#bc92ef681d)"><path fill="#cf786f" d="M 666.800781 614.25 L 1242.71875 614.25 L 1242.71875 627.75 L 666.800781 627.75 Z M 666.800781 614.25 " fill-opacity="1" fill-rule="nonzero"/></g><g fill="#cf786f" fill-opacity="1"><g transform="translate(666.800793, 606.749989)"><g><path d="M 64.832031 1.355469 C 95.558594 1.355469 115.457031 -2.570312 115.457031 -24.363281 C 115.457031 -45.613281 94.070312 -46.289062 63.074219 -48.726562 C 33.703125 -51.027344 29.234375 -52.109375 29.234375 -57.390625 C 29.234375 -62.53125 36.003906 -64.429688 59.417969 -64.429688 C 82.699219 -64.429688 92.039062 -62.53125 92.039062 -55.222656 L 112.75 -55.222656 C 112.75 -76.609375 90.820312 -80.535156 60.773438 -80.535156 C 32.621094 -80.535156 8.664062 -76.609375 8.664062 -56.441406 C 8.664062 -37.761719 25.988281 -35.054688 60.367188 -32.890625 C 90.6875 -30.859375 94.746094 -30.183594 94.746094 -23.550781 C 94.746094 -16.648438 90.414062 -14.753906 63.480469 -14.753906 C 36.003906 -14.753906 25.988281 -18.542969 25.988281 -28.019531 L 5.277344 -28.019531 C 5.277344 -2.570312 34.109375 1.355469 64.832031 1.355469 Z M 64.832031 1.355469 "/></g></g></g><g fill="#cf786f" fill-opacity="1"><g transform="translate(787.53441, 606.749989)"><g><path d="M 60.230469 1.355469 C 70.925781 1.355469 79.585938 0.675781 87.300781 -0.675781 L 87.300781 -17.191406 C 77.964844 -15.835938 73.902344 -15.835938 66.59375 -15.835938 C 51.164062 -15.835938 48.183594 -19.761719 48.183594 -37.355469 L 48.183594 -61.992188 L 87.300781 -61.992188 L 87.300781 -79.179688 L 48.183594 -79.179688 L 48.183594 -102.867188 L 27.613281 -96.777344 L 27.613281 -79.179688 L 5.277344 -79.179688 L 5.277344 -61.992188 L 27.613281 -61.992188 L 27.613281 -23.957031 C 27.613281 -6.363281 41.011719 1.355469 60.230469 1.355469 Z M 60.230469 1.355469 "/></g></g></g><g fill="#cf786f" fill-opacity="1"><g transform="translate(880.1149, 606.749989)"><g><path d="M 42.09375 1.355469 C 61.992188 1.355469 78.097656 -3.65625 92.582031 -9.878906 L 92.582031 0 L 113.289062 0 L 113.289062 -40.199219 C 113.019531 -70.246094 94.070312 -80.535156 60.773438 -80.535156 C 43.855469 -80.535156 28.152344 -77.558594 11.910156 -72.277344 L 19.492188 -57.253906 C 36.410156 -62.398438 49.269531 -63.34375 59.691406 -63.34375 C 70.519531 -63.34375 92.582031 -61.992188 92.582031 -45.34375 C 81.210938 -48.996094 67.675781 -51.570312 53.328125 -51.570312 C 27.746094 -51.570312 5.277344 -44.667969 5.277344 -24.09375 C 5.277344 -5.957031 18.542969 1.355469 42.09375 1.355469 Z M 47.914062 -14.347656 C 34.648438 -14.347656 25.988281 -15.023438 25.988281 -24.5 C 25.988281 -33.566406 37.355469 -36.816406 55.359375 -36.816406 C 71.601562 -36.816406 83.511719 -34.246094 92.582031 -31.265625 L 92.582031 -24.226562 C 79.585938 -18.8125 60.773438 -14.347656 47.914062 -14.347656 Z M 47.914062 -14.347656 "/></g></g></g><g fill="#cf786f" fill-opacity="1"><g transform="translate(1000.03641, 606.749989)"><g><path d="M 63.617188 33.839844 C 94.476562 33.839844 115.726562 19.085938 115.726562 -13.398438 L 115.726562 -79.179688 L 95.015625 -79.179688 L 95.015625 -66.1875 C 86.761719 -75.257812 72.820312 -80.535156 53.195312 -80.535156 C 25.3125 -80.535156 5.277344 -68.625 5.277344 -40.335938 C 5.277344 -12.046875 25.3125 -0.136719 53.195312 -0.136719 C 72.820312 -0.136719 86.625 -5.277344 95.015625 -14.484375 C 94.070312 6.363281 84.59375 16.648438 58.609375 16.648438 C 41.011719 16.648438 23.144531 12.722656 13.804688 10.964844 L 13.804688 27.476562 C 21.519531 29.507812 40.46875 33.839844 63.617188 33.839844 Z M 60.503906 -17.324219 C 37.355469 -17.324219 25.988281 -24.226562 25.988281 -40.335938 C 25.988281 -56.441406 37.355469 -63.34375 60.503906 -63.34375 C 83.648438 -63.34375 95.015625 -56.441406 95.015625 -40.335938 C 95.015625 -24.226562 83.648438 -17.324219 60.503906 -17.324219 Z M 60.503906 -17.324219 "/></g></g></g><g fill="#cf786f" fill-opacity="1"><g transform="translate(1122.394276, 606.749989)"><g><path d="M 59.148438 1.355469 C 87.707031 1.355469 108.148438 -8.121094 113.5625 -28.019531 L 92.988281 -28.019531 C 87.4375 -19.21875 76.339844 -15.566406 59.148438 -15.566406 C 41.824219 -15.566406 29.101562 -20.167969 26.394531 -34.246094 L 114.914062 -34.246094 C 114.914062 -70.652344 90.007812 -80.535156 60.503906 -80.535156 C 28.289062 -80.535156 5.277344 -68.625 5.277344 -39.660156 C 5.277344 -10.558594 29.371094 1.355469 59.148438 1.355469 Z M 27.207031 -48.457031 C 30.726562 -60.503906 42.5 -64.429688 60.503906 -64.429688 C 76.878906 -64.429688 89.0625 -60.503906 92.851562 -48.457031 Z M 27.207031 -48.457031 "/></g></g></g><g clip-path="url(#626b280a54)"><g clip-path="url(#5a49354a56)"><g clip-path="url(#bd6321ca1d)"><path fill="#000000" d="M 1278.039062 559.652344 L 1273.847656 555.828125 C 1330.113281 494.097656 1325.800781 398.222656 1264.234375 342.109375 L 1268.066406 337.902344 C 1331.945312 396.125 1336.417969 495.601562 1278.039062 559.652344 " fill-opacity="1" fill-rule="nonzero"/></g></g></g><g clip-path="url(#102d6d5e6a)"><g clip-path="url(#9ec55406d9)"><g clip-path="url(#812c2720d1)"><path fill="#000000" d="M 1323.929688 558.296875 L 1273.234375 560.714844 L 1270.953125 510.011719 L 1276.632812 509.742188 L 1278.652344 554.765625 L 1323.675781 552.621094 L 1323.929688 558.296875 " fill-opacity="1" fill-rule="nonzero"/></g></g></g></svg>